# xmcd
#
# Track frame offsets:
#	150
#	19526
#	45062
#	69274
#	83714
#	101457
#	119968
#	135752
#	156974
#	173832
#	187530
#
# Disc length: 2806 seconds
#
# Revision: 0
# Processed by: cddbd v1.4PL0 Copyright (c) Steve Scherf et al.
# Submitted via: EasyCDDAExtractor 4.6.0.1
#
DISCID=750af40b
DTITLE=Janice Edwards - Live at Bourbon Street
DYEAR=2001
DGENRE=Blues
TTITLE0=Cheek To Cheek
TTITLE1=These Foolish Things
TTITLE2=What The World Needs Now
TTITLE3=Introduction
TTITLE4=Come Dance With Me
TTITLE5=I Thought About You
TTITLE6=The Late, Late Show
TTITLE7=Come In From The Rain
TTITLE8=Someday We'll All Be Free
TTITLE9=Moon River
TTITLE10=Evil Gal Blues
EXTD=Recorded December 11, 2000 at Bourbon Street, San Diego, CA.
EXTT0=
EXTT1=
EXTT2=
EXTT3=
EXTT4=
EXTT5=
EXTT6=
EXTT7=
EXTT8=
EXTT9=
EXTT10=
PLAYORDER=
